<svg xmlns="http://www.w3.org/2000/svg" enable-background="new 0 0 24 24" viewBox="0 0 24 24" id="nvidia">
  <path fill="#77B900" d="M8.948,18.121v-1.247c-4.84-0.605-6.492-5.983-6.492-5.983s2.164-3.222,6.5-3.561V6.155C4.153,6.547,0,10.642,0,10.642S2.35,17.498,8.948,18.121L8.948,18.121z"></path>
  <path fill="#77B900" d="M4.275,11.053c0,0,1.016,3.836,4.673,4.495v-1.14C6.89,13.704,6.21,11.274,6.21,11.274s1.202-1.442,2.73-1.255h0.008V8.773c0.218-0.024,0.438-0.038,0.662-0.038l0.133,0.002c2.508,0,4,1.967,4,1.967l-2.04,1.727c-0.91-1.54-1.219-2.217-2.747-2.404v4.38c0.371,0.124,0.76,0.186,1.158,0.186c2.976,0,5.75-3.881,5.75-3.881s-2.571-3.526-6.493-3.401H9.368c-0.149,0.002-0.296,0.008-0.42,0.018v1.44L8.921,8.774l0.023-0.001C6.031,9.095,4.275,11.053,4.275,11.053L4.275,11.053z"></path>
  <path fill="#77B900" d="M24,4H8.948v2.155l0.424-0.027c5.45-0.186,9.01,4.505,9.01,4.505s-4.08,5.004-8.33,5.004c-0.37,0-0.732-0.035-1.095-0.098v1.335c0.3,0.035,0.61,0.063,0.91,0.063c3.957,0,6.82-2.039,9.592-4.443c0.459,0.374,2.34,1.273,2.729,1.666c-2.633,2.225-8.771,4.015-12.252,4.015c-0.336,0-0.653-0.018-0.971-0.053V20H24V4L24,4z"></path>
  <path fill="#DEDEDE" d="M.051 10.593H0v.049C0 10.642.017 10.625.051 10.593L.051 10.593zM13.652 10.593h-3.229c.451.387.772.978 1.281 1.839l2.04-1.727C13.744 10.705 13.713 10.664 13.652 10.593L13.652 10.593z"></path>
  <path fill="#68A100" d="M2.683,10.593H0.051C0.017,10.625,0,10.642,0,10.642l0,0c0,0,2.35,6.856,8.948,7.479v-1.247c-4.84-0.605-6.492-5.983-6.492-5.983S2.532,10.779,2.683,10.593L2.683,10.593z"></path>
  <path fill="#68A100" d="M6.978,10.593H4.766c-0.321,0.27-0.491,0.459-0.491,0.459s1.016,3.836,4.673,4.495v-1.14l0,0l0,0C6.89,13.704,6.21,11.274,6.21,11.274S6.501,10.926,6.978,10.593L6.978,10.593z M15.772,10.593h-2.12c0.061,0.07,0.092,0.111,0.092,0.111l-2.04,1.727c-0.509-0.861-0.83-1.452-1.281-1.839H8.957v3.815c0.371,0.124,0.76,0.186,1.158,0.186c2.976,0,5.75-3.881,5.75-3.881S15.834,10.67,15.772,10.593L15.772,10.593z"></path>
  <path fill="#68A100" d="M24,10.593h-5.649c0.021,0.026,0.031,0.04,0.031,0.04s-4.08,5.004-8.33,5.004c-0.37,0-0.732-0.035-1.095-0.098v1.335c0.3,0.035,0.61,0.063,0.91,0.063c3.957,0,6.82-2.039,9.592-4.443c0.459,0.374,2.34,1.273,2.729,1.666c-2.633,2.225-8.771,4.015-12.252,4.015c-0.336,0-0.653-0.018-0.971-0.053V20H24V10.593L24,10.593z"></path>
</svg>
